<?xml version="1.0" encoding="iso-8859-1"?>
<!-- Generator: Adobe Illustrator 19.0.0, SVG Export Plug-In . SVG Version: 6.00 Build 0)  -->
<svg version="1.1" id="Layer_1" xmlns="http://www.w3.org/2000/svg" xmlns:xlink="http://www.w3.org/1999/xlink" x="0px" y="0px"
	 viewBox="0 0 512.001 512.001" style="enable-background:new 0 0 512.001 512.001;" xml:space="preserve">
<path style="fill:#FBB403;" d="M186.295,134.808c-0.003,0-0.006,0-0.009,0.001c0.014-0.021,0.024-0.042,0.038-0.062
	c1.542-3.261,3.296-6.399,5.228-9.414c19.279-39.487,3.675-75.503,3.675-75.503s30.355,3.282,43.892,39.936
	c-5.335-19.134,15.997-64.55,53.736-79.318c-9.403,40.507,18.178,76.55,39.192,112.743c3.117,4.553,5.803,9.424,7.988,14.561
	c0.005,0.009,0.01,0.019,0.015,0.029h-0.002c4.298,10.114,6.68,21.239,6.68,32.92c0,46.518-37.711,84.229-84.228,84.229
	s-84.228-37.711-84.228-84.229C178.27,157.861,181.155,145.699,186.295,134.808z"/>
<g>
	<path style="fill:#CE4500;" d="M468.907,346.28c4.119,1.103,7.901,2.983,11.32,5.51c1.082-12.361-0.054-26.025-3.78-39.93
		c-11.404-42.561-42.606-71.18-69.689-63.923l-150.811,40.77L468.907,346.28z"/>
	<path style="fill:#CE4500;" d="M63.837,402.064c-18.236-4.887-29.941-24.799-32.171-50.275
		c-19.068,14.09-26.74,48.605-17.071,84.693c11.404,42.561,42.606,71.18,69.689,63.923l171.662-46.407L63.837,402.064z"/>
</g>
<path style="fill:#ED732F;" d="M63.837,402.064l363.772,98.342c27.084,7.257,58.285-21.362,69.689-63.923
	s-1.307-82.946-28.391-90.203l-363.772-98.342L63.837,402.064z"/>
<g transform="matrix(0.9659 0.2588 -0.2588 0.9659 83.27 -10.33)">
	
		<ellipse transform="matrix(2.536240e-006 1 -1 2.536240e-006 411.5484 235.6156)" style="fill:#CE4500;" cx="87.966" cy="323.583" rx="79.781" ry="50.771"/>
	
		<ellipse transform="matrix(2.536240e-006 1 -1 2.536240e-006 411.5484 235.6157)" style="fill:#ED732F;" cx="87.966" cy="323.583" rx="47.621" ry="21.161"/>
</g>
<path d="M490.959,347.096c0.473-12.409-0.994-25.153-4.421-37.94c-13.094-48.872-49.323-80.196-82.508-71.305l-148.084,40.034
	l-148.085-40.033c-0.003-0.001-0.007-0.001-0.01-0.002c-0.004-0.001-0.008-0.003-0.013-0.004
	c-33.153-8.885-69.39,22.439-82.486,71.31c-3.444,12.853-4.923,25.806-4.453,38.08C1.29,365.873-5.318,402.535,4.503,439.187
	c6.023,22.48,17.385,42.239,31.994,55.638c12.307,11.289,25.84,17.172,39.074,17.172c3.851,0,7.677-0.498,11.441-1.507
	l168.935-45.67c0,0,176.531,47.18,180.377,47.18c13.226,0,26.765-5.885,39.073-17.175c14.608-13.4,25.97-33.159,31.994-55.638
	C517.585,401.14,510.314,365.299,490.959,347.096z M409.462,258.029c21.115-5.654,47.166,20.235,56.893,56.536
	c1.88,7.014,3.069,14.164,3.555,21.162l-173.929-47.02L409.462,258.029z M45.538,314.565c8.829-32.946,31.099-57.312,50.923-57.312
	c2.021,0,4.018,0.254,5.97,0.776c21.112,5.658,30.731,41.105,21.004,77.408c-5.008,18.689-14.219,34.9-25.935,45.648
	c-10.438,9.573-21.43,13.439-30.958,10.887c-9.526-2.552-17.115-11.399-21.367-24.908C40.401,351.899,40.53,333.254,45.538,314.565z
	 M81.58,490.314c-9.523,2.551-20.521-1.313-30.958-10.887c-11.716-10.748-20.927-26.959-25.935-45.648
	c-5.695-21.255-4.867-42.592,1.493-57.69c6.71,19.008,19.008,31.767,34.889,36.048c0.015,0.004,0.028,0.01,0.043,0.014l0.021,0.005
	h0.001h0.001l154.777,41.843L81.58,490.314z M487.206,433.779c-5.008,18.689-14.219,34.9-25.935,45.648
	c-10.436,9.573-21.43,13.439-30.935,10.893l-325.75-88.063c2.382-1.732,4.732-3.658,7.038-5.774
	c14.608-13.4,25.97-33.16,31.994-55.638c7.275-27.151,5.646-53.171-2.913-72.469l325.498,87.995
	C487.316,362.028,496.933,397.477,487.206,433.779z"/>
<path d="M61.64,329.696c5.573,1.492,11.303-1.815,12.797-7.388c5.72-21.346,16.02-31.321,19.293-31.806
	c2.593,2.056,6.526,15.845,0.806,37.192c-5.795,21.629-16.293,31.583-19.419,31.819c-5.541-1.417-11.199,1.882-12.683,7.418
	c-1.494,5.573,1.814,11.303,7.388,12.797c1.417,0.379,3.195,0.683,5.254,0.683c6.009,0,14.42-2.586,23.281-13.416
	c6.981-8.533,12.792-20.57,16.362-33.892c7.287-27.196,4.278-57.509-15.57-62.828c-19.846-5.322-37.611,19.431-44.897,46.625
	C52.759,322.473,56.067,328.202,61.64,329.696z"/>
<path d="M61.063,354.445c5.77,0,10.448-4.678,10.448-10.448c0-0.032,0-0.087,0-0.129c-0.036-5.74-4.699-10.351-10.448-10.351
	c-5.769,0-10.448,4.709-10.448,10.479S55.293,354.445,61.063,354.445z"/>
<path d="M417.444,383.704l0.115,0.031c0.912,0.247,1.828,0.364,2.729,0.364c4.605,0,8.822-3.07,10.08-7.727
	c1.503-5.571-1.793-11.306-7.364-12.809l-0.115-0.031c-5.573-1.506-11.306,1.793-12.809,7.364
	C408.576,376.466,411.873,382.201,417.444,383.704z"/>
<path d="M166.153,315.503l222.942,60.607c0.917,0.25,1.84,0.369,2.747,0.369c4.598,0,8.812-3.059,10.076-7.71
	c1.514-5.569-1.773-11.31-7.342-12.823L171.635,295.34c-5.571-1.516-11.31,1.774-12.823,7.341
	C157.298,308.248,160.585,313.989,166.153,315.503z"/>
<path d="M403.265,437.105l-0.115-0.03c-5.574-1.486-11.301,1.828-12.787,7.402c-1.487,5.575,1.827,11.301,7.402,12.787l0.115,0.03
	c0.902,0.24,1.808,0.355,2.699,0.355c4.617,0,8.842-3.085,10.089-7.759C412.155,444.316,408.841,438.592,403.265,437.105z"/>
<path d="M374.869,429.497L151.927,368.89c-5.569-1.516-11.309,1.774-12.823,7.341c-1.514,5.569,1.773,11.31,7.342,12.823
	l222.941,60.607c0.917,0.25,1.84,0.369,2.747,0.369c4.598,0,8.812-3.059,10.076-7.71
	C383.723,436.751,380.436,431.009,374.869,429.497z"/>
<path d="M187.861,339.068c-5.572-1.488-11.3,1.828-12.787,7.402c-1.487,5.575,1.827,11.301,7.402,12.787l0.115,0.03
	c0.902,0.24,1.807,0.355,2.699,0.355c4.617,0,8.842-3.085,10.089-7.759c1.487-5.575-1.827-11.301-7.402-12.787L187.861,339.068z"/>
<path d="M237.153,353.145c-5.575-1.494-11.303,1.814-12.797,7.388c-1.494,5.574,1.814,11.303,7.388,12.797l116.417,31.193
	c0.906,0.242,1.816,0.358,2.711,0.358c4.613,0,8.835-3.079,10.085-7.746c1.494-5.574-1.814-11.303-7.388-12.797L237.153,353.145z"/>
<path d="M433.276,405.696l-50.499-13.531c-5.573-1.495-11.304,1.814-12.797,7.388c-1.494,5.574,1.814,11.303,7.388,12.797
	l50.499,13.531c0.906,0.242,1.816,0.358,2.711,0.358c4.613,0,8.835-3.079,10.085-7.746
	C442.158,412.918,438.85,407.189,433.276,405.696z"/>
<path d="M262.498,265.379c52.204,0,94.676-42.472,94.676-94.677c0-12.76-2.501-25.146-7.432-36.818
	c-0.054-0.134-0.111-0.267-0.171-0.4c-2.362-5.519-5.281-10.853-8.681-15.865c-3.013-5.181-6.182-10.401-9.249-15.453
	c-18.36-30.246-35.702-58.814-28.612-89.355c0.877-3.777-0.411-7.729-3.343-10.266c-2.933-2.536-7.03-3.24-10.641-1.826
	c-27.533,10.775-47.371,35.819-56.127,58.76c-16.337-17.601-35.475-19.918-36.57-20.037c-3.702-0.402-7.33,1.196-9.535,4.192
	c-2.206,2.994-2.654,6.936-1.174,10.35c0.136,0.314,13.363,31.692-3.227,66.252c-2.006,3.176-3.817,6.45-5.391,9.745
	c-0.134,0.258-0.257,0.52-0.369,0.785c-5.859,12.57-8.83,26.005-8.83,39.938C167.822,222.908,210.294,265.379,262.498,265.379z
	 M195.743,139.266c0.023-0.049,0.046-0.098,0.068-0.147c1.305-2.748,2.83-5.488,4.535-8.148c0.217-0.34,0.415-0.692,0.592-1.054
	c11.71-23.985,11.857-46.733,9.536-62.538c6.681,4.817,13.966,12.808,18.84,26.008c1.941,5.257,7.684,8.046,13.016,6.321
	c5.333-1.724,8.354-7.348,6.85-12.747c-2.9-10.404,8.311-40.127,31.326-57.625c0.754,30.103,17.236,57.255,33.273,83.675
	c3.079,5.071,6.262,10.317,9.23,15.429c0.13,0.224,0.267,0.442,0.414,0.655c2.755,4.025,5.109,8.314,6.997,12.752
	c0.014,0.03,0.026,0.061,0.04,0.091c3.861,9.109,5.818,18.786,5.818,28.766c0,40.683-33.098,73.781-73.78,73.781
	s-73.781-33.098-73.781-73.781C188.718,159.722,191.081,149.145,195.743,139.266z"/>
<path d="M262.498,229.146c30.629,0,56.531-23.893,58.966-54.395c0.459-5.752-3.831-10.788-9.583-11.246
	c-5.754-0.458-10.788,3.831-11.246,9.583c-1.574,19.717-18.327,35.162-38.137,35.162c-5.77,0-10.448,4.678-10.448,10.448
	S256.727,229.146,262.498,229.146z"/>
<path d="M302.824,153.106c2,0,4.021-0.573,5.807-1.77c4.794-3.213,6.074-9.703,2.863-14.497l-0.17-0.249
	c-3.271-4.754-9.765-5.938-14.517-2.665c-4.754,3.271-5.943,9.795-2.672,14.548C296.151,151.482,299.455,153.106,302.824,153.106z"
	/>
<g>
</g>
<g>
</g>
<g>
</g>
<g>
</g>
<g>
</g>
<g>
</g>
<g>
</g>
<g>
</g>
<g>
</g>
<g>
</g>
<g>
</g>
<g>
</g>
<g>
</g>
<g>
</g>
<g>
</g>
</svg>
